<?xml version="1.0" standalone="no"?>
<!DOCTYPE svg PUBLIC "-//W3C//DTD SVG 20010904//EN"
 "http://www.w3.org/TR/2001/REC-SVG-20010904/DTD/svg10.dtd">
<svg version="1.0" xmlns="http://www.w3.org/2000/svg"
 width="600.000000pt" height="600.000000pt" viewBox="0 0 600.000000 600.000000"
 preserveAspectRatio="xMidYMid meet">
<metadata>
Created by potrace 1.11, written by Peter Selinger 2001-2013
</metadata>
<g transform="translate(0.000000,600.000000) scale(0.100000,-0.100000)"
fill="#000000" stroke="none">
<path d="M0 3000 l0 -3000 3000 0 3000 0 0 3000 0 3000 -3000 0 -3000 0 0
-3000z m4480 1908 c-147 -131 -1299 -1202 -1297 -1205 2 -2 47 17 100 42 135
64 209 78 387 72 179 -6 297 -34 431 -103 234 -121 384 -298 469 -554 156
-463 -6 -1075 -397 -1499 -317 -344 -778 -565 -1273 -610 -795 -73 -1376 249
-1520 840 -117 480 122 1120 643 1724 52 61 240 252 418 426 178 173 459 446
624 606 l300 292 575 0 575 0 -35 -31z"/>
<path d="M2986 3063 c-383 -82 -689 -474 -636 -816 21 -139 107 -274 219 -347
90 -57 153 -73 286 -74 109 0 128 3 207 31 208 73 394 235 490 428 172 343 22
708 -320 781 -84 17 -157 17 -246 -3z"/>
</g>
</svg>
